<svg xmlns="http://www.w3.org/2000/svg" width="375" height="812" viewBox="0 0 375 812">
  <defs>
    <clipPath id="phone"><rect width="375" height="812" rx="50" /></clipPath>
    <linearGradient id="progressGrad" x1="0" y1="0" x2="1" y2="0">
      <stop offset="0%" stop-color="#B0482D" />
      <stop offset="100%" stop-color="#C4603F" />
    </linearGradient>
  </defs>
  <rect width="375" height="812" rx="50" fill="#FBF6F1" />
  <g clip-path="url(#phone)">
    <!-- Dynamic Island -->
    <rect x="0" y="0" width="375" height="54" fill="#FFFFFF" />
    <rect x="127" y="10" width="120" height="34" rx="17" fill="#1a1a1a" />
    <line x1="0" y1="54" x2="375" y2="54" stroke="rgba(0,0,68,0.1)" stroke-width="1" />
    <g transform="translate(250,-40) scale(1.2)" opacity="0.06">
      <path d="M44.7,-76.4C58.8,-69.2,71.8,-59.1,79.6,-45.8C87.4,-32.5,90,-16.3,88.5,-0.9C87,14.5,81.4,29,72.8,41.5C64.2,54,52.6,64.5,39.4,71.8C26.2,79.1,11.4,83.2,-2.8,87.4C-17,91.6,-34,95.8,-47.2,88.8C-60.4,81.8,-69.8,63.6,-76.4,46.1C-83,28.6,-86.8,11.8,-84.6,-3.6C-82.4,-19,-74.2,-33.1,-63.5,-43.7C-52.8,-54.3,-39.6,-61.5,-26.4,-69.4C-13.2,-77.3,0,-85.9,14.2,-87.2C28.4,-88.5,56.8,-82.5,44.7,-76.4Z" fill="#B0482D" transform="translate(100,100)" />
    </g>
    <g transform="translate(-70,550) scale(1.0)" opacity="0.3">
      <path d="M39.5,-67.5C52.9,-60.1,66.8,-53.2,74.8,-42C82.8,-30.8,84.9,-15.4,83.3,-0.9C81.7,13.5,76.4,27.1,68.4,38.6C60.4,50.1,49.7,59.6,37.4,66.1C25.1,72.6,11.1,76.1,-2.5,80.3C-16.1,84.5,-32.2,89.4,-45,83.8C-57.8,78.2,-67.3,62.1,-73.5,45.8C-79.7,29.5,-82.6,13,-80.5,1.2C-78.4,-10.6,-71.3,-19,-63.5,-28.3C-55.7,-37.6,-47.2,-47.8,-36.8,-56.7C-26.4,-65.6,-13.2,-73.2,0.4,-73.9C14,-74.6,28,-74.9,39.5,-67.5Z" fill="#EEDBC3" transform="translate(100,100)" />
    </g>
    <text x="20" y="70" font-size="10" fill="rgba(0,0,68,0.45)" font-family="system-ui, -apple-system, Segoe UI, Roboto, sans-serif">Welcome back</text>
    <text x="20" y="92" font-size="20" fill="#B0482D" font-weight="700" font-family="Quicksand, Varela Round, Nunito, system-ui, sans-serif">Good Moves</text>
    <circle cx="345" cy="76" r="19" fill="#EEDBC3" stroke="rgba(176,72,45,0.15)" stroke-width="2" />
    <text x="345" y="81" text-anchor="middle" font-size="15">👤</text>
    <circle cx="360" cy="62" r="5" fill="#B0482D" stroke="#FBF6F1" stroke-width="2" />
    <rect x="16" y="116" width="343" height="145" rx="16" fill="#FFFFFF" stroke="rgba(0,0,68,0.1)" stroke-width="1.5" />
    <text x="30" y="138" font-size="11" fill="#000044" font-weight="700" font-family="Quicksand, Varela Round, Nunito, system-ui, sans-serif">Your Progress</text>
    <text x="330" y="138" text-anchor="end" font-size="11" fill="#B0482D" font-weight="600" font-family="system-ui, -apple-system, Segoe UI, Roboto, sans-serif">3/10</text>
    <rect x="30" y="150" width="18" height="18" rx="6" fill="#B0482D" stroke="#B0482D" stroke-width="1.5" />
    <text x="39" y="163" text-anchor="middle" font-size="7" fill="#FFFFFF" font-weight="700">✓</text>
    <rect x="51" y="150" width="18" height="18" rx="6" fill="#B0482D" stroke="#B0482D" stroke-width="1.5" />
    <text x="60" y="163" text-anchor="middle" font-size="7" fill="#FFFFFF" font-weight="700">✓</text>
    <rect x="72" y="150" width="18" height="18" rx="6" fill="#B0482D" stroke="#B0482D" stroke-width="1.5" />
    <text x="81" y="163" text-anchor="middle" font-size="7" fill="#FFFFFF" font-weight="700">✓</text>
    <rect x="93" y="150" width="18" height="18" rx="6" fill="#EEDBC3" stroke="rgba(0,0,68,0.1)" stroke-width="1.5" />
    <rect x="114" y="150" width="18" height="18" rx="6" fill="#EEDBC3" stroke="rgba(0,0,68,0.1)" stroke-width="1.5" />
    <rect x="135" y="150" width="18" height="18" rx="6" fill="#EEDBC3" stroke="rgba(0,0,68,0.1)" stroke-width="1.5" />
    <rect x="156" y="150" width="18" height="18" rx="6" fill="#EEDBC3" stroke="rgba(0,0,68,0.1)" stroke-width="1.5" />
    <rect x="177" y="150" width="18" height="18" rx="6" fill="#EEDBC3" stroke="rgba(0,0,68,0.1)" stroke-width="1.5" />
    <rect x="198" y="150" width="18" height="18" rx="6" fill="#EEDBC3" stroke="rgba(0,0,68,0.1)" stroke-width="1.5" />
    <rect x="219" y="150" width="18" height="18" rx="6" fill="#EEDBC3" stroke="rgba(0,0,68,0.1)" stroke-width="1.5" />
    <rect x="30" y="176" width="313" height="6" rx="3" fill="#EEDBC3" />
    <rect x="30" y="176" width="93.89999999999999" height="6" rx="3" fill="url(#progressGrad)" />
    <text x="30" y="198" font-size="10" fill="rgba(0,0,68,0.65)" font-family="system-ui, -apple-system, Segoe UI, Roboto, sans-serif">Nice momentum — keep showing up!</text>
    <rect x="30" y="210" width="313" height="30" rx="10" fill="rgba(176,72,45,0.08)" />
    <text x="46" y="229" font-size="10" fill="#000044" font-family="system-ui, -apple-system, Segoe UI, Roboto, sans-serif">🎁 Reward: Free class at visit 10</text>
    <rect x="16" y="276" width="343" height="210" rx="16" fill="#FFFFFF" stroke="rgba(0,0,68,0.1)" stroke-width="1.5" />
    <text x="30" y="298" font-size="11" fill="#000044" font-weight="700" font-family="Quicksand, Varela Round, Nunito, system-ui, sans-serif">Today's Classes</text>
    <text x="330" y="298" text-anchor="end" font-size="9" fill="#B0482D" font-weight="600" font-family="system-ui, -apple-system, Segoe UI, Roboto, sans-serif">View all →</text>
    <rect x="26" y="306" width="323" height="30" rx="8" fill="rgba(176,72,45,0.08)" stroke="rgba(176,72,45,0.15)" stroke-width="1" />
    <text x="36" y="322" font-size="11" fill="#000044" font-weight="700" font-family="system-ui, -apple-system, Segoe UI, Roboto, sans-serif">07:00</text>
    <text x="82" y="320" font-size="11" fill="#000044" font-weight="600" font-family="system-ui, -apple-system, Segoe UI, Roboto, sans-serif">Morning Flow</text>
    <text x="82" y="332" font-size="9" fill="rgba(0,0,68,0.45)" font-family="system-ui, -apple-system, Segoe UI, Roboto, sans-serif">Tara · 3 spots</text>
    <rect x="290" y="310" width="46" height="22" rx="8" fill="#FFFFFF" stroke="#B0482D" stroke-width="1.5" />
    <text x="313" y="324" text-anchor="middle" font-size="9" fill="#B0482D" font-weight="700" font-family="Quicksand, Varela Round, Nunito, system-ui, sans-serif">Book</text>
    <text x="36" y="356" font-size="11" fill="#000044" font-weight="700" font-family="system-ui, -apple-system, Segoe UI, Roboto, sans-serif">09:30</text>
    <text x="82" y="354" font-size="11" fill="#000044" font-weight="600" font-family="system-ui, -apple-system, Segoe UI, Roboto, sans-serif">Reformer Basics</text>
    <text x="82" y="366" font-size="9" fill="rgba(0,0,68,0.45)" font-family="system-ui, -apple-system, Segoe UI, Roboto, sans-serif">Elena · 1 spot</text>
    <rect x="290" y="344" width="46" height="22" rx="8" fill="#FFFFFF" stroke="#B0482D" stroke-width="1.5" />
    <text x="313" y="358" text-anchor="middle" font-size="9" fill="#B0482D" font-weight="700" font-family="Quicksand, Varela Round, Nunito, system-ui, sans-serif">Book</text>
    <text x="36" y="390" font-size="11" fill="#000044" font-weight="700" font-family="system-ui, -apple-system, Segoe UI, Roboto, sans-serif">12:00</text>
    <text x="82" y="388" font-size="11" fill="#000044" font-weight="600" font-family="system-ui, -apple-system, Segoe UI, Roboto, sans-serif">Power Mat</text>
    <text x="82" y="400" font-size="9" fill="rgba(0,0,68,0.45)" font-family="system-ui, -apple-system, Segoe UI, Roboto, sans-serif">Petra · 5 spots</text>
    <rect x="290" y="378" width="46" height="22" rx="8" fill="#FFFFFF" stroke="#B0482D" stroke-width="1.5" />
    <text x="313" y="392" text-anchor="middle" font-size="9" fill="#B0482D" font-weight="700" font-family="Quicksand, Varela Round, Nunito, system-ui, sans-serif">Book</text>
    <text x="36" y="424" font-size="11" fill="#000044" font-weight="700" font-family="system-ui, -apple-system, Segoe UI, Roboto, sans-serif">17:30</text>
    <text x="82" y="422" font-size="11" fill="#000044" font-weight="600" font-family="system-ui, -apple-system, Segoe UI, Roboto, sans-serif">Barre Sculpt</text>
    <text x="82" y="434" font-size="9" fill="rgba(0,0,68,0.45)" font-family="system-ui, -apple-system, Segoe UI, Roboto, sans-serif">Maia · 2 spots</text>
    <rect x="290" y="412" width="46" height="22" rx="8" fill="#FFFFFF" stroke="#B0482D" stroke-width="1.5" />
    <text x="313" y="426" text-anchor="middle" font-size="9" fill="#B0482D" font-weight="700" font-family="Quicksand, Varela Round, Nunito, system-ui, sans-serif">Book</text>
    <text x="36" y="458" font-size="11" fill="#000044" font-weight="700" font-family="system-ui, -apple-system, Segoe UI, Roboto, sans-serif">19:00</text>
    <text x="82" y="456" font-size="11" fill="#000044" font-weight="600" font-family="system-ui, -apple-system, Segoe UI, Roboto, sans-serif">Stretch & Restore</text>
    <text x="82" y="468" font-size="9" fill="rgba(0,0,68,0.45)" font-family="system-ui, -apple-system, Segoe UI, Roboto, sans-serif">Tara · 7 spots</text>
    <rect x="290" y="446" width="46" height="22" rx="8" fill="#FFFFFF" stroke="#B0482D" stroke-width="1.5" />
    <text x="313" y="460" text-anchor="middle" font-size="9" fill="#B0482D" font-weight="700" font-family="Quicksand, Varela Round, Nunito, system-ui, sans-serif">Book</text>
    <rect x="16" y="500" width="343" height="155" rx="16" fill="#FFFFFF" stroke="rgba(0,0,68,0.1)" stroke-width="1.5" />
    <text x="30" y="522" font-size="11" fill="#000044" font-weight="700" font-family="Quicksand, Varela Round, Nunito, system-ui, sans-serif">Deals &amp; Perks</text>
    <rect x="26" y="532" width="323" height="34" rx="10" fill="#FBF6F1" stroke="rgba(0,0,68,0.1)" stroke-width="1" />
    <rect x="32" y="536" width="26" height="26" rx="8" fill="#EEDBC3" stroke="#E5D0B5" stroke-width="1" />
    <text x="45" y="554" text-anchor="middle" font-size="12">☕</text>
    <text x="68" y="548" font-size="11" fill="#000044" font-weight="700" font-family="system-ui, -apple-system, Segoe UI, Roboto, sans-serif">Early Bird Perk</text>
    <text x="68" y="560" font-size="9" fill="rgba(0,0,68,0.45)" font-family="system-ui, -apple-system, Segoe UI, Roboto, sans-serif">5 morning classes → 1 free coffee</text>
    <rect x="26" y="570" width="323" height="34" rx="10" fill="#FBF6F1" stroke="rgba(0,0,68,0.1)" stroke-width="1" />
    <rect x="32" y="574" width="26" height="26" rx="8" fill="#EEDBC3" stroke="#E5D0B5" stroke-width="1" />
    <text x="45" y="592" text-anchor="middle" font-size="12">🧘</text>
    <text x="68" y="586" font-size="11" fill="#000044" font-weight="700" font-family="system-ui, -apple-system, Segoe UI, Roboto, sans-serif">Bring a Friend</text>
    <text x="68" y="598" font-size="9" fill="rgba(0,0,68,0.45)" font-family="system-ui, -apple-system, Segoe UI, Roboto, sans-serif">Bring a friend to 3 classes → both get 1 free</text>
    <rect x="26" y="608" width="323" height="34" rx="10" fill="#FBF6F1" stroke="rgba(0,0,68,0.1)" stroke-width="1" />
    <rect x="32" y="612" width="26" height="26" rx="8" fill="#EEDBC3" stroke="#E5D0B5" stroke-width="1" />
    <text x="45" y="630" text-anchor="middle" font-size="12">🎒</text>
    <text x="68" y="624" font-size="11" fill="#000044" font-weight="700" font-family="system-ui, -apple-system, Segoe UI, Roboto, sans-serif">Weekend Warrior</text>
    <text x="68" y="636" font-size="9" fill="rgba(0,0,68,0.45)" font-family="system-ui, -apple-system, Segoe UI, Roboto, sans-serif">4 weekend classes → 20% off GMS merch</text>
    <rect x="16" y="670" width="343" height="70" rx="14" fill="rgba(176,72,45,0.08)" stroke="#B0482D" stroke-width="2" stroke-dasharray="8,4" />
    <text x="187" y="698" text-anchor="middle" font-size="20">📱</text>
    <text x="187" y="716" text-anchor="middle" font-size="12" fill="#B0482D" font-weight="700" font-family="Quicksand, Varela Round, Nunito, system-ui, sans-serif">Simulate NFC Tap</text>
    <text x="187" y="730" text-anchor="middle" font-size="9" fill="rgba(0,0,68,0.45)" font-family="system-ui, -apple-system, Segoe UI, Roboto, sans-serif">Tap to trigger next check-in</text>
  </g>
</svg>