<svg xmlns="http://www.w3.org/2000/svg" width="375" height="812" viewBox="0 0 375 812">
  <defs>
    <clipPath id="phone"><rect width="375" height="812" rx="50" /></clipPath>
    <linearGradient id="progressGrad" x1="0" y1="0" x2="1" y2="0">
      <stop offset="0%" stop-color="#B0482D" />
      <stop offset="100%" stop-color="#C4603F" />
    </linearGradient>
  </defs>
  <rect width="375" height="812" rx="50" fill="#FBF6F1" />
  <g clip-path="url(#phone)">
    <!-- Dynamic Island -->
    <rect x="0" y="0" width="375" height="54" fill="#FFFFFF" />
    <rect x="127" y="10" width="120" height="34" rx="17" fill="#1a1a1a" />
    <line x1="0" y1="54" x2="375" y2="54" stroke="rgba(0,0,68,0.1)" stroke-width="1" />
    <g transform="translate(280,200) scale(1.0)" opacity="0.06">
      <path d="M44.7,-76.4C58.8,-69.2,71.8,-59.1,79.6,-45.8C87.4,-32.5,90,-16.3,88.5,-0.9C87,14.5,81.4,29,72.8,41.5C64.2,54,52.6,64.5,39.4,71.8C26.2,79.1,11.4,83.2,-2.8,87.4C-17,91.6,-34,95.8,-47.2,88.8C-60.4,81.8,-69.8,63.6,-76.4,46.1C-83,28.6,-86.8,11.8,-84.6,-3.6C-82.4,-19,-74.2,-33.1,-63.5,-43.7C-52.8,-54.3,-39.6,-61.5,-26.4,-69.4C-13.2,-77.3,0,-85.9,14.2,-87.2C28.4,-88.5,56.8,-82.5,44.7,-76.4Z" fill="#B0482D" transform="translate(100,100)" />
    </g>
    <circle cx="187" cy="106" r="26" fill="#EEDBC3" stroke="#B0482D" stroke-width="3" />
    <text x="187" y="112" text-anchor="middle" font-size="22">🎁</text>
    <text x="187" y="150" text-anchor="middle" font-size="18" fill="#000044" font-weight="800" font-family="Quicksand, Varela Round, Nunito, system-ui, sans-serif">You're all set!</text>
    <text x="187" y="170" text-anchor="middle" font-size="12" fill="rgba(0,0,68,0.65)" font-family="system-ui, -apple-system, Segoe UI, Roboto, sans-serif">Your accounts are linked and your free class is ready.</text>
    <rect x="20" y="190" width="335" height="50" rx="16" fill="#FFFFFF" stroke="rgba(0,0,68,0.1)" stroke-width="1.5" />
    <circle cx="44" cy="215" r="14" fill="#B0482D" />
    <text x="44" y="220" text-anchor="middle" font-size="12" fill="#FFFFFF">✓</text>
    <text x="68" y="211" font-size="12" fill="#000044" font-weight="700" font-family="system-ui, -apple-system, Segoe UI, Roboto, sans-serif">TapIn → Mindbody linked</text>
    <text x="68" y="227" font-size="10" fill="rgba(0,0,68,0.45)" font-family="system-ui, -apple-system, Segoe UI, Roboto, sans-serif">Visits verified and connected</text>
    <rect x="20" y="252" width="335" height="50" rx="16" fill="#FFFFFF" stroke="rgba(0,0,68,0.1)" stroke-width="1.5" />
    <circle cx="44" cy="277" r="14" fill="#B0482D" />
    <text x="44" y="282" text-anchor="middle" font-size="12" fill="#FFFFFF">✓</text>
    <text x="68" y="273" font-size="12" fill="#000044" font-weight="700" font-family="system-ui, -apple-system, Segoe UI, Roboto, sans-serif">Free class added</text>
    <text x="68" y="289" font-size="10" fill="rgba(0,0,68,0.45)" font-family="system-ui, -apple-system, Segoe UI, Roboto, sans-serif">Credited to your Mindbody account</text>
    <rect x="20" y="314" width="335" height="130" rx="16" fill="#FFFFFF" stroke="rgba(0,0,68,0.1)" stroke-width="1.5" />
    <text x="187" y="334" text-anchor="middle" font-size="10" fill="rgba(0,0,68,0.45)" font-weight="700" font-family="system-ui, -apple-system, Segoe UI, Roboto, sans-serif">STAMP CARD RESET</text>
    <rect x="52" y="344" width="48" height="48" rx="10" fill="#EEDBC3" stroke="rgba(0,0,68,0.1)" stroke-width="2" />
    <text x="76" y="372" text-anchor="middle" font-size="11" fill="rgba(0,0,68,0.45)" font-weight="600" font-family="system-ui, -apple-system, Segoe UI, Roboto, sans-serif">1</text>
    <rect x="108" y="344" width="48" height="48" rx="10" fill="#EEDBC3" stroke="rgba(0,0,68,0.1)" stroke-width="2" />
    <text x="132" y="372" text-anchor="middle" font-size="11" fill="rgba(0,0,68,0.45)" font-weight="600" font-family="system-ui, -apple-system, Segoe UI, Roboto, sans-serif">2</text>
    <rect x="164" y="344" width="48" height="48" rx="10" fill="#EEDBC3" stroke="rgba(0,0,68,0.1)" stroke-width="2" />
    <text x="188" y="372" text-anchor="middle" font-size="11" fill="rgba(0,0,68,0.45)" font-weight="600" font-family="system-ui, -apple-system, Segoe UI, Roboto, sans-serif">3</text>
    <rect x="220" y="344" width="48" height="48" rx="10" fill="#EEDBC3" stroke="rgba(0,0,68,0.1)" stroke-width="2" />
    <text x="244" y="372" text-anchor="middle" font-size="11" fill="rgba(0,0,68,0.45)" font-weight="600" font-family="system-ui, -apple-system, Segoe UI, Roboto, sans-serif">4</text>
    <rect x="276" y="344" width="48" height="48" rx="10" fill="#EEDBC3" stroke="rgba(0,0,68,0.1)" stroke-width="2" />
    <text x="300" y="372" text-anchor="middle" font-size="11" fill="rgba(0,0,68,0.45)" font-weight="600" font-family="system-ui, -apple-system, Segoe UI, Roboto, sans-serif">5</text>
    <rect x="52" y="400" width="48" height="48" rx="10" fill="#EEDBC3" stroke="rgba(0,0,68,0.1)" stroke-width="2" />
    <text x="76" y="428" text-anchor="middle" font-size="11" fill="rgba(0,0,68,0.45)" font-weight="600" font-family="system-ui, -apple-system, Segoe UI, Roboto, sans-serif">6</text>
    <rect x="108" y="400" width="48" height="48" rx="10" fill="#EEDBC3" stroke="rgba(0,0,68,0.1)" stroke-width="2" />
    <text x="132" y="428" text-anchor="middle" font-size="11" fill="rgba(0,0,68,0.45)" font-weight="600" font-family="system-ui, -apple-system, Segoe UI, Roboto, sans-serif">7</text>
    <rect x="164" y="400" width="48" height="48" rx="10" fill="#EEDBC3" stroke="rgba(0,0,68,0.1)" stroke-width="2" />
    <text x="188" y="428" text-anchor="middle" font-size="11" fill="rgba(0,0,68,0.45)" font-weight="600" font-family="system-ui, -apple-system, Segoe UI, Roboto, sans-serif">8</text>
    <rect x="220" y="400" width="48" height="48" rx="10" fill="#EEDBC3" stroke="rgba(0,0,68,0.1)" stroke-width="2" />
    <text x="244" y="428" text-anchor="middle" font-size="11" fill="rgba(0,0,68,0.45)" font-weight="600" font-family="system-ui, -apple-system, Segoe UI, Roboto, sans-serif">9</text>
    <rect x="276" y="400" width="48" height="48" rx="10" fill="#EEDBC3" stroke="rgba(0,0,68,0.1)" stroke-width="2" />
    <text x="300" y="428" text-anchor="middle" font-size="11" fill="rgba(0,0,68,0.45)" font-weight="600" font-family="system-ui, -apple-system, Segoe UI, Roboto, sans-serif">10</text>
    <text x="187" y="436" text-anchor="middle" font-size="11" fill="rgba(0,0,68,0.65)" font-family="system-ui, -apple-system, Segoe UI, Roboto, sans-serif">See you for the next 10!</text>
    <rect x="20" y="462" width="335" height="48" rx="12" fill="#B0482D" stroke="#B0482D" stroke-width="2" />
    <text x="187" y="490" text-anchor="middle" font-size="14" fill="#FFFFFF" font-weight="700" font-family="Quicksand, Varela Round, Nunito, system-ui, sans-serif">Book Your Free Class →</text>
    <rect x="20" y="520" width="335" height="48" rx="12" fill="#FFFFFF" stroke="#B0482D" stroke-width="2" />
    <text x="187" y="548" text-anchor="middle" font-size="14" fill="#B0482D" font-weight="700" font-family="Quicksand, Varela Round, Nunito, system-ui, sans-serif">Maybe Later — Go Home</text>
  </g>
</svg>