<svg xmlns="http://www.w3.org/2000/svg" width="375" height="812" viewBox="0 0 375 812">
  <defs>
    <clipPath id="phone"><rect width="375" height="812" rx="50" /></clipPath>
    <linearGradient id="progressGrad" x1="0" y1="0" x2="1" y2="0">
      <stop offset="0%" stop-color="#B0482D" />
      <stop offset="100%" stop-color="#C4603F" />
    </linearGradient>
  </defs>
  <rect width="375" height="812" rx="50" fill="#FBF6F1" />
  <g clip-path="url(#phone)">
    <!-- Dynamic Island -->
    <rect x="0" y="0" width="375" height="54" fill="#FFFFFF" />
    <rect x="127" y="10" width="120" height="34" rx="17" fill="#1a1a1a" />
    <line x1="0" y1="54" x2="375" y2="54" stroke="rgba(0,0,68,0.1)" stroke-width="1" />
    <g transform="translate(250,-40) scale(1.1)" opacity="0.05">
      <path d="M44.7,-76.4C58.8,-69.2,71.8,-59.1,79.6,-45.8C87.4,-32.5,90,-16.3,88.5,-0.9C87,14.5,81.4,29,72.8,41.5C64.2,54,52.6,64.5,39.4,71.8C26.2,79.1,11.4,83.2,-2.8,87.4C-17,91.6,-34,95.8,-47.2,88.8C-60.4,81.8,-69.8,63.6,-76.4,46.1C-83,28.6,-86.8,11.8,-84.6,-3.6C-82.4,-19,-74.2,-33.1,-63.5,-43.7C-52.8,-54.3,-39.6,-61.5,-26.4,-69.4C-13.2,-77.3,0,-85.9,14.2,-87.2C28.4,-88.5,56.8,-82.5,44.7,-76.4Z" fill="#B0482D" transform="translate(100,100)" />
    </g>
    <rect x="87" y="80" width="200" height="24" rx="12" fill="rgba(176,72,45,0.08)" />
    <text x="187" y="96" text-anchor="middle" font-size="10" fill="#B0482D" font-weight="600" font-family="Quicksand, Varela Round, Nunito, system-ui, sans-serif">Welcome back — instant check-in</text>
    <circle cx="187" cy="150" r="30" fill="#FFFFFF" stroke="#B0482D" stroke-width="3" />
    <text x="187" y="157" text-anchor="middle" font-size="26" fill="#B0482D">✓</text>
    <text x="187" y="198" text-anchor="middle" font-size="20" fill="#000044" font-weight="800" font-family="Quicksand, Varela Round, Nunito, system-ui, sans-serif">You're checked in!</text>
    <text x="187" y="220" text-anchor="middle" font-size="13" fill="rgba(0,0,68,0.65)" font-family="system-ui, -apple-system, Segoe UI, Roboto, sans-serif">Visit 5 of 10 — halfway there!</text>
    <rect x="20" y="244" width="335" height="155" rx="16" fill="#FFFFFF" stroke="rgba(0,0,68,0.1)" stroke-width="1.5" />
    <text x="34" y="264" font-size="10" fill="rgba(0,0,68,0.45)" font-weight="700" font-family="system-ui, -apple-system, Segoe UI, Roboto, sans-serif">YOUR PROGRESS</text>
    <text x="326" y="264" text-anchor="end" font-size="10" fill="#B0482D" font-weight="600" font-family="system-ui, -apple-system, Segoe UI, Roboto, sans-serif">5/10</text>
    <rect x="34" y="274" width="48" height="48" rx="10" fill="#B0482D" stroke="#B0482D" stroke-width="2" />
    <text x="58" y="302" text-anchor="middle" font-size="11" fill="#FFFFFF" font-weight="600" font-family="system-ui, -apple-system, Segoe UI, Roboto, sans-serif">✓</text>
    <rect x="90" y="274" width="48" height="48" rx="10" fill="#B0482D" stroke="#B0482D" stroke-width="2" />
    <text x="114" y="302" text-anchor="middle" font-size="11" fill="#FFFFFF" font-weight="600" font-family="system-ui, -apple-system, Segoe UI, Roboto, sans-serif">✓</text>
    <rect x="146" y="274" width="48" height="48" rx="10" fill="#B0482D" stroke="#B0482D" stroke-width="2" />
    <text x="170" y="302" text-anchor="middle" font-size="11" fill="#FFFFFF" font-weight="600" font-family="system-ui, -apple-system, Segoe UI, Roboto, sans-serif">✓</text>
    <rect x="202" y="274" width="48" height="48" rx="10" fill="#B0482D" stroke="#B0482D" stroke-width="2" />
    <text x="226" y="302" text-anchor="middle" font-size="11" fill="#FFFFFF" font-weight="600" font-family="system-ui, -apple-system, Segoe UI, Roboto, sans-serif">✓</text>
    <rect x="258" y="274" width="48" height="48" rx="10" fill="#B0482D" stroke="#B0482D" stroke-width="2" />
    <text x="282" y="302" text-anchor="middle" font-size="11" fill="#FFFFFF" font-weight="600" font-family="system-ui, -apple-system, Segoe UI, Roboto, sans-serif">✓</text>
    <rect x="34" y="330" width="48" height="48" rx="10" fill="#EEDBC3" stroke="rgba(0,0,68,0.1)" stroke-width="2" />
    <text x="58" y="358" text-anchor="middle" font-size="11" fill="rgba(0,0,68,0.45)" font-weight="600" font-family="system-ui, -apple-system, Segoe UI, Roboto, sans-serif">6</text>
    <rect x="90" y="330" width="48" height="48" rx="10" fill="#EEDBC3" stroke="rgba(0,0,68,0.1)" stroke-width="2" />
    <text x="114" y="358" text-anchor="middle" font-size="11" fill="rgba(0,0,68,0.45)" font-weight="600" font-family="system-ui, -apple-system, Segoe UI, Roboto, sans-serif">7</text>
    <rect x="146" y="330" width="48" height="48" rx="10" fill="#EEDBC3" stroke="rgba(0,0,68,0.1)" stroke-width="2" />
    <text x="170" y="358" text-anchor="middle" font-size="11" fill="rgba(0,0,68,0.45)" font-weight="600" font-family="system-ui, -apple-system, Segoe UI, Roboto, sans-serif">8</text>
    <rect x="202" y="330" width="48" height="48" rx="10" fill="#EEDBC3" stroke="rgba(0,0,68,0.1)" stroke-width="2" />
    <text x="226" y="358" text-anchor="middle" font-size="11" fill="rgba(0,0,68,0.45)" font-weight="600" font-family="system-ui, -apple-system, Segoe UI, Roboto, sans-serif">9</text>
    <rect x="258" y="330" width="48" height="48" rx="10" fill="#EEDBC3" stroke="rgba(0,0,68,0.1)" stroke-width="2" />
    <text x="282" y="358" text-anchor="middle" font-size="11" fill="rgba(0,0,68,0.45)" font-weight="600" font-family="system-ui, -apple-system, Segoe UI, Roboto, sans-serif">10</text>
    <rect x="34" y="382" width="307" height="6" rx="3" fill="#EEDBC3" />
    <rect x="34" y="382" width="153.5" height="6" rx="3" fill="url(#progressGrad)" />
    <text x="187" y="416" text-anchor="middle" font-size="11" fill="rgba(0,0,68,0.65)" font-family="system-ui, -apple-system, Segoe UI, Roboto, sans-serif">5 more visits to your free class!</text>
    <rect x="20" y="732" width="335" height="48" rx="12" fill="#B0482D" stroke="#B0482D" stroke-width="2" />
    <text x="187" y="760" text-anchor="middle" font-size="14" fill="#FFFFFF" font-weight="700" font-family="Quicksand, Varela Round, Nunito, system-ui, sans-serif">Done</text>
  </g>
</svg>