<svg xmlns="http://www.w3.org/2000/svg" width="375" height="812" viewBox="0 0 375 812">
  <defs>
    <clipPath id="phone"><rect width="375" height="812" rx="50" /></clipPath>
    <linearGradient id="progressGrad" x1="0" y1="0" x2="1" y2="0">
      <stop offset="0%" stop-color="#B0482D" />
      <stop offset="100%" stop-color="#C4603F" />
    </linearGradient>
  </defs>
  <rect width="375" height="812" rx="50" fill="#FBF6F1" />
  <g clip-path="url(#phone)">
    <!-- Dynamic Island -->
    <rect x="0" y="0" width="375" height="54" fill="#FFFFFF" />
    <rect x="127" y="10" width="120" height="34" rx="17" fill="#1a1a1a" />
    <line x1="0" y1="54" x2="375" y2="54" stroke="rgba(0,0,68,0.1)" stroke-width="1" />
    <g transform="translate(280,-50) scale(0.9)" opacity="0.4">
      <path d="M39.5,-67.5C52.9,-60.1,66.8,-53.2,74.8,-42C82.8,-30.8,84.9,-15.4,83.3,-0.9C81.7,13.5,76.4,27.1,68.4,38.6C60.4,50.1,49.7,59.6,37.4,66.1C25.1,72.6,11.1,76.1,-2.5,80.3C-16.1,84.5,-32.2,89.4,-45,83.8C-57.8,78.2,-67.3,62.1,-73.5,45.8C-79.7,29.5,-82.6,13,-80.5,1.2C-78.4,-10.6,-71.3,-19,-63.5,-28.3C-55.7,-37.6,-47.2,-47.8,-36.8,-56.7C-26.4,-65.6,-13.2,-73.2,0.4,-73.9C14,-74.6,28,-74.9,39.5,-67.5Z" fill="#EEDBC3" transform="translate(100,100)" />
    </g>
    <text x="20" y="70" font-size="14" fill="#B0482D">←</text>
    <text x="38" y="70" font-size="12" fill="#B0482D" font-weight="600" font-family="system-ui, -apple-system, Segoe UI, Roboto, sans-serif">Back</text>
    <text x="187" y="94" text-anchor="middle" font-size="24">🎁</text>
    <text x="187" y="114" text-anchor="middle" font-size="18" fill="#000044" font-weight="800" font-family="Quicksand, Varela Round, Nunito, system-ui, sans-serif">Book Your Free Class</text>
    <text x="187" y="132" text-anchor="middle" font-size="11" fill="rgba(0,0,68,0.65)" font-family="system-ui, -apple-system, Segoe UI, Roboto, sans-serif">Pick any class — it's on us!</text>
    <rect x="20" y="150" width="335" height="30" rx="10" fill="rgba(176,72,45,0.08)" stroke="rgba(176,72,45,0.15)" stroke-width="1" />
    <text x="187" y="169" text-anchor="middle" font-size="10" fill="rgba(0,0,68,0.65)" font-family="system-ui, -apple-system, Segoe UI, Roboto, sans-serif">Your free class will be booked via Mindbody</text>
    <rect x="20" y="194" width="335" height="48" rx="12" fill="#FFFFFF" stroke="rgba(0,0,68,0.1)" stroke-width="2" />
    <text x="34" y="214" font-size="12" fill="#000044" font-weight="700" font-family="system-ui, -apple-system, Segoe UI, Roboto, sans-serif">07:00</text>
    <text x="80" y="214" font-size="12" fill="#000044" font-weight="600" font-family="system-ui, -apple-system, Segoe UI, Roboto, sans-serif">Morning Flow</text>
    <text x="80" y="230" font-size="9" fill="rgba(0,0,68,0.45)" font-family="system-ui, -apple-system, Segoe UI, Roboto, sans-serif">Tara · 3 spots</text>
    <rect x="20" y="250" width="335" height="48" rx="12" fill="#FFFFFF" stroke="rgba(0,0,68,0.1)" stroke-width="2" />
    <text x="34" y="270" font-size="12" fill="#000044" font-weight="700" font-family="system-ui, -apple-system, Segoe UI, Roboto, sans-serif">09:30</text>
    <text x="80" y="270" font-size="12" fill="#000044" font-weight="600" font-family="system-ui, -apple-system, Segoe UI, Roboto, sans-serif">Reformer Basics</text>
    <text x="80" y="286" font-size="9" fill="rgba(0,0,68,0.45)" font-family="system-ui, -apple-system, Segoe UI, Roboto, sans-serif">Elena · 1 spot</text>
    <rect x="20" y="306" width="335" height="48" rx="12" fill="rgba(176,72,45,0.08)" stroke="#B0482D" stroke-width="2" />
    <circle cx="42" cy="330" r="10" fill="#B0482D" />
    <text x="42" y="334" text-anchor="middle" font-size="10" fill="#FFFFFF">✓</text>
    <text x="60" y="326" font-size="12" fill="#000044" font-weight="700" font-family="system-ui, -apple-system, Segoe UI, Roboto, sans-serif">12:00</text>
    <text x="106" y="326" font-size="12" fill="#000044" font-weight="600" font-family="system-ui, -apple-system, Segoe UI, Roboto, sans-serif">Power Mat</text>
    <text x="106" y="342" font-size="9" fill="rgba(0,0,68,0.45)" font-family="system-ui, -apple-system, Segoe UI, Roboto, sans-serif">Petra · 5 spots</text>
    <text x="330" y="334" text-anchor="end" font-size="9" fill="#B0482D" font-weight="700" font-family="Quicksand, Varela Round, Nunito, system-ui, sans-serif">FREE</text>
    <rect x="20" y="362" width="335" height="48" rx="12" fill="#FFFFFF" stroke="rgba(0,0,68,0.1)" stroke-width="2" />
    <text x="34" y="382" font-size="12" fill="#000044" font-weight="700" font-family="system-ui, -apple-system, Segoe UI, Roboto, sans-serif">17:30</text>
    <text x="80" y="382" font-size="12" fill="#000044" font-weight="600" font-family="system-ui, -apple-system, Segoe UI, Roboto, sans-serif">Barre Sculpt</text>
    <text x="80" y="398" font-size="9" fill="rgba(0,0,68,0.45)" font-family="system-ui, -apple-system, Segoe UI, Roboto, sans-serif">Maia · 2 spots</text>
    <rect x="20" y="418" width="335" height="48" rx="12" fill="#FFFFFF" stroke="rgba(0,0,68,0.1)" stroke-width="2" />
    <text x="34" y="438" font-size="12" fill="#000044" font-weight="700" font-family="system-ui, -apple-system, Segoe UI, Roboto, sans-serif">19:00</text>
    <text x="80" y="438" font-size="12" fill="#000044" font-weight="600" font-family="system-ui, -apple-system, Segoe UI, Roboto, sans-serif">Stretch & Restore</text>
    <text x="80" y="454" font-size="9" fill="rgba(0,0,68,0.45)" font-family="system-ui, -apple-system, Segoe UI, Roboto, sans-serif">Tara · 7 spots</text>
    <rect x="20" y="732" width="335" height="48" rx="12" fill="#B0482D" stroke="#B0482D" stroke-width="2" />
    <text x="187" y="760" text-anchor="middle" font-size="14" fill="#FFFFFF" font-weight="700" font-family="Quicksand, Varela Round, Nunito, system-ui, sans-serif">Book Power Mat — Free</text>
  </g>
</svg>