<svg xmlns="http://www.w3.org/2000/svg" width="375" height="812" viewBox="0 0 375 812">
  <defs>
    <clipPath id="phone"><rect width="375" height="812" rx="50" /></clipPath>
    <linearGradient id="progressGrad" x1="0" y1="0" x2="1" y2="0">
      <stop offset="0%" stop-color="#B0482D" />
      <stop offset="100%" stop-color="#C4603F" />
    </linearGradient>
  </defs>
  <rect width="375" height="812" rx="50" fill="#FBF6F1" />
  <g clip-path="url(#phone)">
    <!-- Dynamic Island -->
    <rect x="0" y="0" width="375" height="54" fill="#FFFFFF" />
    <rect x="127" y="10" width="120" height="34" rx="17" fill="#1a1a1a" />
    <line x1="0" y1="54" x2="375" y2="54" stroke="rgba(0,0,68,0.1)" stroke-width="1" />
    <g transform="translate(-50,-30) scale(1.3)" opacity="0.05">
      <path d="M44.7,-76.4C58.8,-69.2,71.8,-59.1,79.6,-45.8C87.4,-32.5,90,-16.3,88.5,-0.9C87,14.5,81.4,29,72.8,41.5C64.2,54,52.6,64.5,39.4,71.8C26.2,79.1,11.4,83.2,-2.8,87.4C-17,91.6,-34,95.8,-47.2,88.8C-60.4,81.8,-69.8,63.6,-76.4,46.1C-83,28.6,-86.8,11.8,-84.6,-3.6C-82.4,-19,-74.2,-33.1,-63.5,-43.7C-52.8,-54.3,-39.6,-61.5,-26.4,-69.4C-13.2,-77.3,0,-85.9,14.2,-87.2C28.4,-88.5,56.8,-82.5,44.7,-76.4Z" fill="#B0482D" transform="translate(100,100)" />
    </g>
    <g transform="translate(-90,350) scale(0.8)" opacity="0.35">
      <path d="M39.5,-67.5C52.9,-60.1,66.8,-53.2,74.8,-42C82.8,-30.8,84.9,-15.4,83.3,-0.9C81.7,13.5,76.4,27.1,68.4,38.6C60.4,50.1,49.7,59.6,37.4,66.1C25.1,72.6,11.1,76.1,-2.5,80.3C-16.1,84.5,-32.2,89.4,-45,83.8C-57.8,78.2,-67.3,62.1,-73.5,45.8C-79.7,29.5,-82.6,13,-80.5,1.2C-78.4,-10.6,-71.3,-19,-63.5,-28.3C-55.7,-37.6,-47.2,-47.8,-36.8,-56.7C-26.4,-65.6,-13.2,-73.2,0.4,-73.9C14,-74.6,28,-74.9,39.5,-67.5Z" fill="#EEDBC3" transform="translate(100,100)" />
    </g>
    <rect x="117" y="80" width="140" height="24" rx="12" fill="rgba(176,72,45,0.08)" />
    <text x="187" y="96" text-anchor="middle" font-size="10" fill="#B0482D" font-weight="600" font-family="Quicksand, Varela Round, Nunito, system-ui, sans-serif">Good Moves Studio</text>
    <circle cx="187" cy="146" r="26" fill="#FFFFFF" stroke="#B0482D" stroke-width="3" />
    <text x="187" y="152" text-anchor="middle" font-size="22" fill="#B0482D">✓</text>
    <text x="187" y="186" text-anchor="middle" font-size="20" fill="#000044" font-weight="800" font-family="Quicksand, Varela Round, Nunito, system-ui, sans-serif">You're checked in!</text>
    <!-- Class association pill -->
    <rect x="105" y="196" width="165" height="24" rx="12" fill="rgba(0,29,162,0.08)" />
    <text x="187" y="212" text-anchor="middle" font-size="10" fill="#001DA2" font-weight="600" font-family="system-ui, sans-serif">Reformer Basics · 09:30</text>
    <text x="187" y="236" text-anchor="middle" font-size="12" fill="rgba(0,0,68,0.65)" font-family="system-ui, -apple-system, Segoe UI, Roboto, sans-serif">Visit 1 of 10 — welcome to Good Moves!</text>
    <rect x="20" y="228" width="335" height="150" rx="16" fill="#FFFFFF" stroke="rgba(0,0,68,0.1)" stroke-width="1.5" />
    <text x="34" y="248" font-size="10" fill="rgba(0,0,68,0.45)" font-weight="700" font-family="system-ui, -apple-system, Segoe UI, Roboto, sans-serif" text-transform="uppercase">YOUR PROGRESS</text>
    <text x="326" y="248" text-anchor="end" font-size="10" fill="#B0482D" font-weight="600" font-family="system-ui, -apple-system, Segoe UI, Roboto, sans-serif">1/10</text>
    <rect x="34" y="258" width="48" height="48" rx="10" fill="#B0482D" stroke="#B0482D" stroke-width="2" />
    <text x="58" y="286" text-anchor="middle" font-size="11" fill="#FFFFFF" font-weight="600" font-family="system-ui, -apple-system, Segoe UI, Roboto, sans-serif">✓</text>
    <rect x="90" y="258" width="48" height="48" rx="10" fill="#EEDBC3" stroke="rgba(0,0,68,0.1)" stroke-width="2" />
    <text x="114" y="286" text-anchor="middle" font-size="11" fill="rgba(0,0,68,0.45)" font-weight="600" font-family="system-ui, -apple-system, Segoe UI, Roboto, sans-serif">2</text>
    <rect x="146" y="258" width="48" height="48" rx="10" fill="#EEDBC3" stroke="rgba(0,0,68,0.1)" stroke-width="2" />
    <text x="170" y="286" text-anchor="middle" font-size="11" fill="rgba(0,0,68,0.45)" font-weight="600" font-family="system-ui, -apple-system, Segoe UI, Roboto, sans-serif">3</text>
    <rect x="202" y="258" width="48" height="48" rx="10" fill="#EEDBC3" stroke="rgba(0,0,68,0.1)" stroke-width="2" />
    <text x="226" y="286" text-anchor="middle" font-size="11" fill="rgba(0,0,68,0.45)" font-weight="600" font-family="system-ui, -apple-system, Segoe UI, Roboto, sans-serif">4</text>
    <rect x="258" y="258" width="48" height="48" rx="10" fill="#EEDBC3" stroke="rgba(0,0,68,0.1)" stroke-width="2" />
    <text x="282" y="286" text-anchor="middle" font-size="11" fill="rgba(0,0,68,0.45)" font-weight="600" font-family="system-ui, -apple-system, Segoe UI, Roboto, sans-serif">5</text>
    <rect x="34" y="314" width="48" height="48" rx="10" fill="#EEDBC3" stroke="rgba(0,0,68,0.1)" stroke-width="2" />
    <text x="58" y="342" text-anchor="middle" font-size="11" fill="rgba(0,0,68,0.45)" font-weight="600" font-family="system-ui, -apple-system, Segoe UI, Roboto, sans-serif">6</text>
    <rect x="90" y="314" width="48" height="48" rx="10" fill="#EEDBC3" stroke="rgba(0,0,68,0.1)" stroke-width="2" />
    <text x="114" y="342" text-anchor="middle" font-size="11" fill="rgba(0,0,68,0.45)" font-weight="600" font-family="system-ui, -apple-system, Segoe UI, Roboto, sans-serif">7</text>
    <rect x="146" y="314" width="48" height="48" rx="10" fill="#EEDBC3" stroke="rgba(0,0,68,0.1)" stroke-width="2" />
    <text x="170" y="342" text-anchor="middle" font-size="11" fill="rgba(0,0,68,0.45)" font-weight="600" font-family="system-ui, -apple-system, Segoe UI, Roboto, sans-serif">8</text>
    <rect x="202" y="314" width="48" height="48" rx="10" fill="#EEDBC3" stroke="rgba(0,0,68,0.1)" stroke-width="2" />
    <text x="226" y="342" text-anchor="middle" font-size="11" fill="rgba(0,0,68,0.45)" font-weight="600" font-family="system-ui, -apple-system, Segoe UI, Roboto, sans-serif">9</text>
    <rect x="258" y="314" width="48" height="48" rx="10" fill="#EEDBC3" stroke="rgba(0,0,68,0.1)" stroke-width="2" />
    <text x="282" y="342" text-anchor="middle" font-size="11" fill="rgba(0,0,68,0.45)" font-weight="600" font-family="system-ui, -apple-system, Segoe UI, Roboto, sans-serif">10</text>
    <rect x="34" y="363" width="307" height="6" rx="3" fill="#EEDBC3" />
    <rect x="34" y="363" width="30.700000000000003" height="6" rx="3" fill="url(#progressGrad)" />
    <line x1="40" y1="394" x2="155" y2="394" stroke="rgba(0,0,68,0.1)" />
    <text x="187" y="398" text-anchor="middle" font-size="9" fill="rgba(0,0,68,0.45)" font-family="system-ui, -apple-system, Segoe UI, Roboto, sans-serif">SAVE YOUR PROGRESS</text>
    <line x1="220" y1="394" x2="335" y2="394" stroke="rgba(0,0,68,0.1)" />
    <text x="20" y="418" font-size="12" fill="#000044" font-weight="600" font-family="Quicksand, Varela Round, Nunito, system-ui, sans-serif">Enter your phone number</text>
    <text x="20" y="434" font-size="10" fill="rgba(0,0,68,0.65)" font-family="system-ui, -apple-system, Segoe UI, Roboto, sans-serif">So we remember you next time. No app needed.</text>
    <rect x="20" y="448" width="335" height="44" rx="12" fill="#FFFFFF" stroke="rgba(0,0,68,0.1)" stroke-width="1.5" />
    <text x="34" y="475" font-size="12" fill="rgba(0,0,68,0.45)" font-family="system-ui, -apple-system, Segoe UI, Roboto, sans-serif">🇩🇪 +49</text>
    <text x="90" y="475" font-size="13" fill="rgba(0,0,68,0.45)" font-family="system-ui, -apple-system, Segoe UI, Roboto, sans-serif">170 1234 5678</text>
    <text x="20" y="500" font-size="9" fill="rgba(0,0,68,0.45)" font-family="system-ui, -apple-system, Segoe UI, Roboto, sans-serif">Only stored as a hash · no spam · text DELETE to remove</text>
    <rect x="20" y="732" width="335" height="48" rx="12" fill="#B0482D" stroke="#B0482D" stroke-width="2" />
    <text x="187" y="760" text-anchor="middle" font-size="14" fill="#FFFFFF" font-weight="700" font-family="Quicksand, Varela Round, Nunito, system-ui, sans-serif">Save &amp; Continue →</text>
  </g>
</svg>