<svg xmlns="http://www.w3.org/2000/svg" width="375" height="812" viewBox="0 0 375 812">
  <defs>
    <clipPath id="phone"><rect width="375" height="812" rx="50" /></clipPath>
    <linearGradient id="progressGrad" x1="0" y1="0" x2="1" y2="0">
      <stop offset="0%" stop-color="#B0482D" />
      <stop offset="100%" stop-color="#C4603F" />
    </linearGradient>
  </defs>
  <rect width="375" height="812" rx="50" fill="#EEDBC3" />
  <g clip-path="url(#phone)">
    <!-- Dynamic Island -->
    <rect x="0" y="0" width="375" height="54" fill="#FFFFFF" />
    <rect x="127" y="10" width="120" height="34" rx="17" fill="#1a1a1a" />
    <line x1="0" y1="54" x2="375" y2="54" stroke="rgba(0,0,68,0.1)" stroke-width="1" />
    <g transform="translate(250,-40) scale(1.4)" opacity="0.08">
      <path d="M44.7,-76.4C58.8,-69.2,71.8,-59.1,79.6,-45.8C87.4,-32.5,90,-16.3,88.5,-0.9C87,14.5,81.4,29,72.8,41.5C64.2,54,52.6,64.5,39.4,71.8C26.2,79.1,11.4,83.2,-2.8,87.4C-17,91.6,-34,95.8,-47.2,88.8C-60.4,81.8,-69.8,63.6,-76.4,46.1C-83,28.6,-86.8,11.8,-84.6,-3.6C-82.4,-19,-74.2,-33.1,-63.5,-43.7C-52.8,-54.3,-39.6,-61.5,-26.4,-69.4C-13.2,-77.3,0,-85.9,14.2,-87.2C28.4,-88.5,56.8,-82.5,44.7,-76.4Z" fill="#B0482D" transform="translate(100,100)" />
    </g>
    <g transform="translate(-50,550) scale(1.2)" opacity="0.5">
      <path d="M39.5,-67.5C52.9,-60.1,66.8,-53.2,74.8,-42C82.8,-30.8,84.9,-15.4,83.3,-0.9C81.7,13.5,76.4,27.1,68.4,38.6C60.4,50.1,49.7,59.6,37.4,66.1C25.1,72.6,11.1,76.1,-2.5,80.3C-16.1,84.5,-32.2,89.4,-45,83.8C-57.8,78.2,-67.3,62.1,-73.5,45.8C-79.7,29.5,-82.6,13,-80.5,1.2C-78.4,-10.6,-71.3,-19,-63.5,-28.3C-55.7,-37.6,-47.2,-47.8,-36.8,-56.7C-26.4,-65.6,-13.2,-73.2,0.4,-73.9C14,-74.6,28,-74.9,39.5,-67.5Z" fill="#FFFFFF" transform="translate(100,100)" />
    </g>
    <text x="187" y="70" text-anchor="middle" font-size="30">🎉</text>
    <text x="187" y="100" text-anchor="middle" font-size="20" fill="#B0482D" font-weight="800" font-family="Quicksand, Varela Round, Nunito, system-ui, sans-serif">Free class earned!</text>
    <text x="187" y="118" text-anchor="middle" font-size="11" fill="rgba(0,0,68,0.65)" font-family="system-ui, -apple-system, Segoe UI, Roboto, sans-serif">10 visits completed — you're amazing.</text>
    <rect x="20" y="134" width="335" height="55" rx="16" fill="#FFFFFF" stroke="rgba(0,0,68,0.1)" stroke-width="1.5" />
    <text x="34" y="150" font-size="9" fill="rgba(0,0,68,0.45)" font-weight="700" font-family="system-ui, -apple-system, Segoe UI, Roboto, sans-serif">COMPLETE!</text>
    <text x="326" y="150" text-anchor="end" font-size="9" fill="#B0482D" font-weight="600" font-family="system-ui, -apple-system, Segoe UI, Roboto, sans-serif">10/10</text>
    <rect x="34" y="158" width="18" height="18" rx="6" fill="#B0482D" stroke="#B0482D" stroke-width="1.5" />
    <text x="43" y="171" text-anchor="middle" font-size="7" fill="#FFFFFF" font-weight="700">✓</text>
    <rect x="55" y="158" width="18" height="18" rx="6" fill="#B0482D" stroke="#B0482D" stroke-width="1.5" />
    <text x="64" y="171" text-anchor="middle" font-size="7" fill="#FFFFFF" font-weight="700">✓</text>
    <rect x="76" y="158" width="18" height="18" rx="6" fill="#B0482D" stroke="#B0482D" stroke-width="1.5" />
    <text x="85" y="171" text-anchor="middle" font-size="7" fill="#FFFFFF" font-weight="700">✓</text>
    <rect x="97" y="158" width="18" height="18" rx="6" fill="#B0482D" stroke="#B0482D" stroke-width="1.5" />
    <text x="106" y="171" text-anchor="middle" font-size="7" fill="#FFFFFF" font-weight="700">✓</text>
    <rect x="118" y="158" width="18" height="18" rx="6" fill="#B0482D" stroke="#B0482D" stroke-width="1.5" />
    <text x="127" y="171" text-anchor="middle" font-size="7" fill="#FFFFFF" font-weight="700">✓</text>
    <rect x="139" y="158" width="18" height="18" rx="6" fill="#B0482D" stroke="#B0482D" stroke-width="1.5" />
    <text x="148" y="171" text-anchor="middle" font-size="7" fill="#FFFFFF" font-weight="700">✓</text>
    <rect x="160" y="158" width="18" height="18" rx="6" fill="#B0482D" stroke="#B0482D" stroke-width="1.5" />
    <text x="169" y="171" text-anchor="middle" font-size="7" fill="#FFFFFF" font-weight="700">✓</text>
    <rect x="181" y="158" width="18" height="18" rx="6" fill="#B0482D" stroke="#B0482D" stroke-width="1.5" />
    <text x="190" y="171" text-anchor="middle" font-size="7" fill="#FFFFFF" font-weight="700">✓</text>
    <rect x="202" y="158" width="18" height="18" rx="6" fill="#B0482D" stroke="#B0482D" stroke-width="1.5" />
    <text x="211" y="171" text-anchor="middle" font-size="7" fill="#FFFFFF" font-weight="700">✓</text>
    <rect x="223" y="158" width="18" height="18" rx="6" fill="#B0482D" stroke="#B0482D" stroke-width="1.5" />
    <text x="232" y="171" text-anchor="middle" font-size="7" fill="#FFFFFF" font-weight="700">✓</text>
    <rect x="20" y="200" width="335" height="36" rx="10" fill="#FFFFFF" stroke="rgba(0,0,68,0.1)" stroke-width="1" />
    <rect x="28" y="208" width="18" height="18" rx="5" fill="#EEDBC3" stroke="#E5D0B5" stroke-width="1.5" />
    <text x="37" y="221" text-anchor="middle" font-size="9" fill="rgba(0,0,68,0.65)">?</text>
    <text x="54" y="222" font-size="9" fill="rgba(0,0,68,0.65)" font-family="system-ui, -apple-system, Segoe UI, Roboto, sans-serif"><tspan font-weight="700" fill="#000044">Verification needed</tspan> — match name to Mindbody</text>
    <line x1="20" y1="248" x2="130" y2="248" stroke="#E5D0B5" />
    <text x="187" y="252" text-anchor="middle" font-size="8" fill="rgba(0,0,68,0.45)" font-weight="700" font-family="system-ui, -apple-system, Segoe UI, Roboto, sans-serif">LINK YOUR ACCOUNT</text>
    <line x1="245" y1="248" x2="355" y2="248" stroke="#E5D0B5" />
    <rect x="20" y="266" width="335" height="230" rx="14" fill="#FFFFFF" stroke="#B0482D" stroke-width="2" />
    <text x="32" y="288" font-size="11" fill="#B0482D" font-weight="700" font-family="Quicksand, Varela Round, Nunito, system-ui, sans-serif">Claim your free class</text>
    <text x="32" y="304" font-size="9" fill="rgba(0,0,68,0.65)" font-family="system-ui, -apple-system, Segoe UI, Roboto, sans-serif">Enter your name to find your Mindbody account,</text>
    <text x="32" y="316" font-size="9" fill="rgba(0,0,68,0.65)" font-family="system-ui, -apple-system, Segoe UI, Roboto, sans-serif">and email for booking confirmation.</text>
    <text x="32" y="338" font-size="9" fill="#000044" font-weight="600" font-family="system-ui, -apple-system, Segoe UI, Roboto, sans-serif">Name</text>
    <rect x="32" y="344" width="311" height="40" rx="10" fill="#FBF6F1" stroke="rgba(0,0,68,0.1)" stroke-width="1.5" />
    <text x="44" y="369" font-size="12" fill="rgba(0,0,68,0.45)">👤</text>
    <text x="62" y="369" font-size="12" fill="rgba(0,0,68,0.45)" font-family="system-ui, -apple-system, Segoe UI, Roboto, sans-serif">Your full name</text>
    <text x="32" y="404" font-size="9" fill="#000044" font-weight="600" font-family="system-ui, -apple-system, Segoe UI, Roboto, sans-serif">Email</text>
    <rect x="32" y="410" width="311" height="40" rx="10" fill="#FBF6F1" stroke="rgba(0,0,68,0.1)" stroke-width="1.5" />
    <text x="44" y="435" font-size="12" fill="rgba(0,0,68,0.45)">✉</text>
    <text x="62" y="435" font-size="12" fill="rgba(0,0,68,0.45)" font-family="system-ui, -apple-system, Segoe UI, Roboto, sans-serif">you@email.com</text>
    <text x="32" y="468" font-size="8" fill="rgba(0,0,68,0.45)" font-family="system-ui, -apple-system, Segoe UI, Roboto, sans-serif">Name must match your Mindbody / Urban Sports Club account</text>
    <rect x="20" y="510" width="335" height="48" rx="12" fill="#B0482D" stroke="#B0482D" stroke-width="2" />
    <text x="187" y="538" text-anchor="middle" font-size="14" fill="#FFFFFF" font-weight="700" font-family="Quicksand, Varela Round, Nunito, system-ui, sans-serif">Verify &amp; Claim Free Class →</text>
  </g>
</svg>