<svg xmlns="http://www.w3.org/2000/svg" width="375" height="812" viewBox="0 0 375 812">
  <defs>
    <clipPath id="phone"><rect width="375" height="812" rx="50" /></clipPath>
  </defs>
  <rect width="375" height="812" rx="50" fill="#F5F5F5" />
  <g clip-path="url(#phone)">
    <rect x="0" y="0" width="375" height="50" fill="#FFFFFF" />
    <rect x="147" y="10" width="80" height="6" rx="3" fill="#DDDDDD" />
    <line x1="0" y1="50" x2="375" y2="50" stroke="#DDDDDD" />
    <text x="187" y="70" text-anchor="middle" font-size="28">🎉</text>
    <text x="187" y="94" text-anchor="middle" font-size="18" fill="#557799" font-weight="700" font-family="system-ui, -apple-system, Segoe UI, Roboto, sans-serif">Free class earned!</text>
    <text x="187" y="112" text-anchor="middle" font-size="11" fill="#999999" font-family="system-ui, -apple-system, Segoe UI, Roboto, sans-serif">10 visits complete</text>
    <rect x="20" y="128" width="335" height="50" rx="12" fill="#FFFFFF" stroke="#DDDDDD" stroke-width="1" />
    <text x="34" y="144" font-size="9" fill="#999999" font-weight="600">COMPLETE! 10/10</text>
    <rect x="34" y="152" width="18" height="18" rx="6" fill="#557799" stroke="#557799" stroke-width="1.5" />
    <text x="43" y="165" text-anchor="middle" font-size="7" fill="#FFFFFF" font-weight="700">✓</text>
    <rect x="55" y="152" width="18" height="18" rx="6" fill="#557799" stroke="#557799" stroke-width="1.5" />
    <text x="64" y="165" text-anchor="middle" font-size="7" fill="#FFFFFF" font-weight="700">✓</text>
    <rect x="76" y="152" width="18" height="18" rx="6" fill="#557799" stroke="#557799" stroke-width="1.5" />
    <text x="85" y="165" text-anchor="middle" font-size="7" fill="#FFFFFF" font-weight="700">✓</text>
    <rect x="97" y="152" width="18" height="18" rx="6" fill="#557799" stroke="#557799" stroke-width="1.5" />
    <text x="106" y="165" text-anchor="middle" font-size="7" fill="#FFFFFF" font-weight="700">✓</text>
    <rect x="118" y="152" width="18" height="18" rx="6" fill="#557799" stroke="#557799" stroke-width="1.5" />
    <text x="127" y="165" text-anchor="middle" font-size="7" fill="#FFFFFF" font-weight="700">✓</text>
    <rect x="139" y="152" width="18" height="18" rx="6" fill="#557799" stroke="#557799" stroke-width="1.5" />
    <text x="148" y="165" text-anchor="middle" font-size="7" fill="#FFFFFF" font-weight="700">✓</text>
    <rect x="160" y="152" width="18" height="18" rx="6" fill="#557799" stroke="#557799" stroke-width="1.5" />
    <text x="169" y="165" text-anchor="middle" font-size="7" fill="#FFFFFF" font-weight="700">✓</text>
    <rect x="181" y="152" width="18" height="18" rx="6" fill="#557799" stroke="#557799" stroke-width="1.5" />
    <text x="190" y="165" text-anchor="middle" font-size="7" fill="#FFFFFF" font-weight="700">✓</text>
    <rect x="202" y="152" width="18" height="18" rx="6" fill="#557799" stroke="#557799" stroke-width="1.5" />
    <text x="211" y="165" text-anchor="middle" font-size="7" fill="#FFFFFF" font-weight="700">✓</text>
    <rect x="223" y="152" width="18" height="18" rx="6" fill="#557799" stroke="#557799" stroke-width="1.5" />
    <text x="232" y="165" text-anchor="middle" font-size="7" fill="#FFFFFF" font-weight="700">✓</text>
    <rect x="20" y="190" width="335" height="30" rx="8" fill="#FFFFFF" stroke="#DDDDDD" />
    <text x="34" y="209" font-size="9" fill="#999999" font-family="system-ui, -apple-system, Segoe UI, Roboto, sans-serif">⚠ Verification needed — match name to Mindbody</text>
    <text x="187" y="232" text-anchor="middle" font-size="8" fill="#999999" font-family="system-ui, -apple-system, Segoe UI, Roboto, sans-serif">— LINK YOUR ACCOUNT —</text>
    <rect x="20" y="248" width="335" height="220" rx="12" fill="#FFFFFF" stroke="#557799" stroke-width="2" />
    <text x="32" y="270" font-size="12" fill="#557799" font-weight="700" font-family="system-ui, -apple-system, Segoe UI, Roboto, sans-serif">Claim your free class</text>
    <text x="32" y="286" font-size="9" fill="#999999" font-family="system-ui, -apple-system, Segoe UI, Roboto, sans-serif">Enter name + email for Mindbody verification</text>
    <text x="32" y="310" font-size="9" fill="#333333" font-weight="600">Name</text>
    <rect x="32" y="316" width="311" height="36" rx="8" fill="#E8E8E8" stroke="#DDDDDD" />
    <text x="46" y="338" font-size="11" fill="#999999" font-family="system-ui, -apple-system, Segoe UI, Roboto, sans-serif">👤 Your full name</text>
    <text x="32" y="372" font-size="9" fill="#333333" font-weight="600">Email</text>
    <rect x="32" y="378" width="311" height="36" rx="8" fill="#E8E8E8" stroke="#DDDDDD" />
    <text x="46" y="400" font-size="11" fill="#999999" font-family="system-ui, -apple-system, Segoe UI, Roboto, sans-serif">✉ you@email.com</text>
    <text x="32" y="434" font-size="8" fill="#999999" font-family="system-ui, -apple-system, Segoe UI, Roboto, sans-serif">Must match Mindbody / USC account</text>
    <rect x="20" y="482" width="335" height="44" rx="10" fill="#557799" stroke="#557799" stroke-width="1.5" />
    <text x="187" y="508" text-anchor="middle" font-size="13" fill="#FFFFFF" font-weight="600" font-family="system-ui, -apple-system, Segoe UI, Roboto, sans-serif">Verify & Claim Free Class →</text>
  </g>
</svg>