<svg xmlns="http://www.w3.org/2000/svg" width="375" height="812" viewBox="0 0 375 812">
  <defs>
    <clipPath id="phone"><rect width="375" height="812" rx="50" /></clipPath>
  </defs>
  <rect width="375" height="812" rx="50" fill="#F5F5F5" />
  <g clip-path="url(#phone)">
    <rect x="0" y="0" width="375" height="50" fill="#FFFFFF" />
    <rect x="147" y="10" width="80" height="6" rx="3" fill="#DDDDDD" />
    <line x1="0" y1="50" x2="375" y2="50" stroke="#DDDDDD" />
    <circle cx="187" cy="106" r="26" fill="#FFFFFF" stroke="#557799" stroke-width="2" />
    <text x="187" y="112" text-anchor="middle" font-size="20" fill="#557799">✓</text>
    <text x="187" y="148" text-anchor="middle" font-size="18" fill="#333333" font-weight="700" font-family="system-ui, -apple-system, Segoe UI, Roboto, sans-serif">You're checked in!</text>
    <text x="187" y="166" text-anchor="middle" font-size="11" fill="#999999" font-family="system-ui, -apple-system, Segoe UI, Roboto, sans-serif">Visit 1 of 10</text>
    <rect x="20" y="184" width="335" height="150" rx="12" fill="#FFFFFF" stroke="#DDDDDD" stroke-width="1" />
    <text x="34" y="202" font-size="10" fill="#999999" font-weight="600" font-family="system-ui, -apple-system, Segoe UI, Roboto, sans-serif">YOUR PROGRESS — 1/10</text>
    <rect x="34" y="212" width="48" height="48" rx="10" fill="#557799" stroke="#557799" stroke-width="2" />
    <text x="58" y="240" text-anchor="middle" font-size="11" fill="#FFFFFF" font-weight="600" font-family="system-ui, -apple-system, Segoe UI, Roboto, sans-serif">✓</text>
    <rect x="90" y="212" width="48" height="48" rx="10" fill="#E8E8E8" stroke="#DDDDDD" stroke-width="2" />
    <text x="114" y="240" text-anchor="middle" font-size="11" fill="#999999" font-weight="600" font-family="system-ui, -apple-system, Segoe UI, Roboto, sans-serif">2</text>
    <rect x="146" y="212" width="48" height="48" rx="10" fill="#E8E8E8" stroke="#DDDDDD" stroke-width="2" />
    <text x="170" y="240" text-anchor="middle" font-size="11" fill="#999999" font-weight="600" font-family="system-ui, -apple-system, Segoe UI, Roboto, sans-serif">3</text>
    <rect x="202" y="212" width="48" height="48" rx="10" fill="#E8E8E8" stroke="#DDDDDD" stroke-width="2" />
    <text x="226" y="240" text-anchor="middle" font-size="11" fill="#999999" font-weight="600" font-family="system-ui, -apple-system, Segoe UI, Roboto, sans-serif">4</text>
    <rect x="258" y="212" width="48" height="48" rx="10" fill="#E8E8E8" stroke="#DDDDDD" stroke-width="2" />
    <text x="282" y="240" text-anchor="middle" font-size="11" fill="#999999" font-weight="600" font-family="system-ui, -apple-system, Segoe UI, Roboto, sans-serif">5</text>
    <rect x="34" y="268" width="48" height="48" rx="10" fill="#E8E8E8" stroke="#DDDDDD" stroke-width="2" />
    <text x="58" y="296" text-anchor="middle" font-size="11" fill="#999999" font-weight="600" font-family="system-ui, -apple-system, Segoe UI, Roboto, sans-serif">6</text>
    <rect x="90" y="268" width="48" height="48" rx="10" fill="#E8E8E8" stroke="#DDDDDD" stroke-width="2" />
    <text x="114" y="296" text-anchor="middle" font-size="11" fill="#999999" font-weight="600" font-family="system-ui, -apple-system, Segoe UI, Roboto, sans-serif">7</text>
    <rect x="146" y="268" width="48" height="48" rx="10" fill="#E8E8E8" stroke="#DDDDDD" stroke-width="2" />
    <text x="170" y="296" text-anchor="middle" font-size="11" fill="#999999" font-weight="600" font-family="system-ui, -apple-system, Segoe UI, Roboto, sans-serif">8</text>
    <rect x="202" y="268" width="48" height="48" rx="10" fill="#E8E8E8" stroke="#DDDDDD" stroke-width="2" />
    <text x="226" y="296" text-anchor="middle" font-size="11" fill="#999999" font-weight="600" font-family="system-ui, -apple-system, Segoe UI, Roboto, sans-serif">9</text>
    <rect x="258" y="268" width="48" height="48" rx="10" fill="#E8E8E8" stroke="#DDDDDD" stroke-width="2" />
    <text x="282" y="296" text-anchor="middle" font-size="11" fill="#999999" font-weight="600" font-family="system-ui, -apple-system, Segoe UI, Roboto, sans-serif">10</text>
    <rect x="34" y="317" width="307" height="5" rx="3" fill="#E8E8E8" />
    <rect x="34" y="317" width="31" height="5" rx="3" fill="#557799" />
    <text x="187" y="354" text-anchor="middle" font-size="9" fill="#999999" font-family="system-ui, -apple-system, Segoe UI, Roboto, sans-serif">— SAVE YOUR PROGRESS —</text>
    <text x="20" y="374" font-size="12" fill="#333333" font-weight="600" font-family="system-ui, -apple-system, Segoe UI, Roboto, sans-serif">Enter your phone number</text>
    <text x="20" y="390" font-size="10" fill="#999999" font-family="system-ui, -apple-system, Segoe UI, Roboto, sans-serif">So we remember you next time</text>
    <rect x="20" y="402" width="335" height="40" rx="10" fill="#FFFFFF" stroke="#DDDDDD" stroke-width="1.5" />
    <text x="34" y="427" font-size="12" fill="#999999" font-family="system-ui, -apple-system, Segoe UI, Roboto, sans-serif">🇩🇪 +49  170 1234 5678</text>
    <rect x="20" y="737" width="335" height="44" rx="10" fill="#557799" stroke="#557799" stroke-width="1.5" />
    <text x="187" y="763" text-anchor="middle" font-size="13" fill="#FFFFFF" font-weight="600" font-family="system-ui, -apple-system, Segoe UI, Roboto, sans-serif">Save & Continue →</text>
  </g>
</svg>