<svg xmlns="http://www.w3.org/2000/svg" width="375" height="812" viewBox="0 0 375 812">
  <defs>
    <clipPath id="phone"><rect width="375" height="812" rx="50" /></clipPath>
  </defs>
  <rect width="375" height="812" rx="50" fill="#F5F5F5" />
  <g clip-path="url(#phone)">
    <rect x="0" y="0" width="375" height="50" fill="#FFFFFF" />
    <rect x="147" y="10" width="80" height="6" rx="3" fill="#DDDDDD" />
    <line x1="0" y1="50" x2="375" y2="50" stroke="#DDDDDD" />
    <text x="20" y="66" font-size="18" fill="#333333" font-weight="700" font-family="system-ui, -apple-system, Segoe UI, Roboto, sans-serif">TapIn</text>
    <circle cx="345" cy="60" r="18" fill="#E8E8E8" stroke="#DDDDDD" stroke-width="1.5" />
    <text x="345" y="64" text-anchor="middle" font-size="14">👤</text>
    <rect x="16" y="90" width="343" height="90" rx="12" fill="#FFFFFF" stroke="#DDDDDD" stroke-width="1" />
    <text x="30" y="110" font-size="11" fill="#333333" font-weight="600" font-family="system-ui, -apple-system, Segoe UI, Roboto, sans-serif">Your Progress</text>
    <text x="330" y="110" text-anchor="end" font-size="11" fill="#557799" font-family="system-ui, -apple-system, Segoe UI, Roboto, sans-serif">3/10</text>
    <rect x="30" y="120" width="18" height="18" rx="6" fill="#557799" stroke="#557799" stroke-width="1.5" />
    <text x="39" y="133" text-anchor="middle" font-size="7" fill="#FFFFFF" font-weight="700">✓</text>
    <rect x="51" y="120" width="18" height="18" rx="6" fill="#557799" stroke="#557799" stroke-width="1.5" />
    <text x="60" y="133" text-anchor="middle" font-size="7" fill="#FFFFFF" font-weight="700">✓</text>
    <rect x="72" y="120" width="18" height="18" rx="6" fill="#557799" stroke="#557799" stroke-width="1.5" />
    <text x="81" y="133" text-anchor="middle" font-size="7" fill="#FFFFFF" font-weight="700">✓</text>
    <rect x="93" y="120" width="18" height="18" rx="6" fill="#E8E8E8" stroke="#DDDDDD" stroke-width="1.5" />
    <rect x="114" y="120" width="18" height="18" rx="6" fill="#E8E8E8" stroke="#DDDDDD" stroke-width="1.5" />
    <rect x="135" y="120" width="18" height="18" rx="6" fill="#E8E8E8" stroke="#DDDDDD" stroke-width="1.5" />
    <rect x="156" y="120" width="18" height="18" rx="6" fill="#E8E8E8" stroke="#DDDDDD" stroke-width="1.5" />
    <rect x="177" y="120" width="18" height="18" rx="6" fill="#E8E8E8" stroke="#DDDDDD" stroke-width="1.5" />
    <rect x="198" y="120" width="18" height="18" rx="6" fill="#E8E8E8" stroke="#DDDDDD" stroke-width="1.5" />
    <rect x="219" y="120" width="18" height="18" rx="6" fill="#E8E8E8" stroke="#DDDDDD" stroke-width="1.5" />
    <rect x="30" y="146" width="313" height="5" rx="3" fill="#E8E8E8" />
    <rect x="30" y="146" width="94" height="5" rx="3" fill="#557799" />
    <text x="30" y="166" font-size="10" fill="#999999" font-family="system-ui, -apple-system, Segoe UI, Roboto, sans-serif">7 more visits to your free class</text>
    <rect x="16" y="194" width="343" height="200" rx="12" fill="#FFFFFF" stroke="#DDDDDD" stroke-width="1" />
    <text x="30" y="214" font-size="11" fill="#333333" font-weight="600" font-family="system-ui, -apple-system, Segoe UI, Roboto, sans-serif">Today's Classes</text>
    <text x="30" y="238" font-size="10" fill="#333333" font-weight="700" font-family="system-ui, -apple-system, Segoe UI, Roboto, sans-serif">07:00</text>
    <text x="80" y="236" font-size="10" fill="#333333" font-family="system-ui, -apple-system, Segoe UI, Roboto, sans-serif">Morning Flow</text>
    <text x="80" y="248" font-size="9" fill="#999999" font-family="system-ui, -apple-system, Segoe UI, Roboto, sans-serif">Tara · 3</text>
    <rect x="290" y="226" width="40" height="20" rx="6" fill="#FFFFFF" stroke="#557799" stroke-width="1" />
    <text x="310" y="240" text-anchor="middle" font-size="9" fill="#557799" font-family="system-ui, -apple-system, Segoe UI, Roboto, sans-serif">Book</text>
    <text x="30" y="270" font-size="10" fill="#333333" font-weight="700" font-family="system-ui, -apple-system, Segoe UI, Roboto, sans-serif">09:30</text>
    <text x="80" y="268" font-size="10" fill="#333333" font-family="system-ui, -apple-system, Segoe UI, Roboto, sans-serif">Reformer Basics</text>
    <text x="80" y="280" font-size="9" fill="#999999" font-family="system-ui, -apple-system, Segoe UI, Roboto, sans-serif">Elena · 1</text>
    <rect x="290" y="258" width="40" height="20" rx="6" fill="#FFFFFF" stroke="#557799" stroke-width="1" />
    <text x="310" y="272" text-anchor="middle" font-size="9" fill="#557799" font-family="system-ui, -apple-system, Segoe UI, Roboto, sans-serif">Book</text>
    <text x="30" y="302" font-size="10" fill="#333333" font-weight="700" font-family="system-ui, -apple-system, Segoe UI, Roboto, sans-serif">12:00</text>
    <text x="80" y="300" font-size="10" fill="#333333" font-family="system-ui, -apple-system, Segoe UI, Roboto, sans-serif">Power Mat</text>
    <text x="80" y="312" font-size="9" fill="#999999" font-family="system-ui, -apple-system, Segoe UI, Roboto, sans-serif">Petra · 5</text>
    <rect x="290" y="290" width="40" height="20" rx="6" fill="#FFFFFF" stroke="#557799" stroke-width="1" />
    <text x="310" y="304" text-anchor="middle" font-size="9" fill="#557799" font-family="system-ui, -apple-system, Segoe UI, Roboto, sans-serif">Book</text>
    <text x="30" y="334" font-size="10" fill="#333333" font-weight="700" font-family="system-ui, -apple-system, Segoe UI, Roboto, sans-serif">17:30</text>
    <text x="80" y="332" font-size="10" fill="#333333" font-family="system-ui, -apple-system, Segoe UI, Roboto, sans-serif">Barre Sculpt</text>
    <text x="80" y="344" font-size="9" fill="#999999" font-family="system-ui, -apple-system, Segoe UI, Roboto, sans-serif">Maia · 2</text>
    <rect x="290" y="322" width="40" height="20" rx="6" fill="#FFFFFF" stroke="#557799" stroke-width="1" />
    <text x="310" y="336" text-anchor="middle" font-size="9" fill="#557799" font-family="system-ui, -apple-system, Segoe UI, Roboto, sans-serif">Book</text>
    <text x="30" y="366" font-size="10" fill="#333333" font-weight="700" font-family="system-ui, -apple-system, Segoe UI, Roboto, sans-serif">19:00</text>
    <text x="80" y="364" font-size="10" fill="#333333" font-family="system-ui, -apple-system, Segoe UI, Roboto, sans-serif">Stretch & Restore</text>
    <text x="80" y="376" font-size="9" fill="#999999" font-family="system-ui, -apple-system, Segoe UI, Roboto, sans-serif">Tara · 7</text>
    <rect x="290" y="354" width="40" height="20" rx="6" fill="#FFFFFF" stroke="#557799" stroke-width="1" />
    <text x="310" y="368" text-anchor="middle" font-size="9" fill="#557799" font-family="system-ui, -apple-system, Segoe UI, Roboto, sans-serif">Book</text>
    <rect x="16" y="408" width="343" height="100" rx="12" fill="#FFFFFF" stroke="#DDDDDD" stroke-width="1" />
    <text x="30" y="428" font-size="11" fill="#333333" font-weight="600" font-family="system-ui, -apple-system, Segoe UI, Roboto, sans-serif">Deals &amp; Perks</text>
    <rect x="26" y="440" width="323" height="26" rx="8" fill="#E8E8E8" stroke="#DDDDDD" stroke-width="1" />
    <text x="38" y="457" font-size="10" fill="#333333" font-family="system-ui, -apple-system, Segoe UI, Roboto, sans-serif">☕ Early Bird Perk</text>
    <rect x="26" y="470" width="323" height="26" rx="8" fill="#E8E8E8" stroke="#DDDDDD" stroke-width="1" />
    <text x="38" y="487" font-size="10" fill="#333333" font-family="system-ui, -apple-system, Segoe UI, Roboto, sans-serif">🧘 Bring a Friend</text>
    <rect x="16" y="522" width="343" height="60" rx="12" fill="#E8E8E8" stroke="#557799" stroke-width="1.5" stroke-dasharray="6,3" />
    <text x="187" y="546" text-anchor="middle" font-size="16">📱</text>
    <text x="187" y="564" text-anchor="middle" font-size="11" fill="#557799" font-weight="600" font-family="system-ui, -apple-system, Segoe UI, Roboto, sans-serif">Simulate NFC Tap</text>
  </g>
</svg>